<svg id="Layer_1" data-name="Layer 1" xmlns="http://www.w3.org/2000/svg" viewBox="0 0 1700 149.63"><defs><style>.cls-1{fill:#acc2bc;}</style></defs><path class="cls-1" d="M1122.42-461.53v26.15q-2.88,1.89-5.79,3.73a8.35,8.35,0,0,0-.78.49c-.95.6-1.91,1.19-2.87,1.78-6.54,3.19-15.86,2.67-22.51,2.67-10.49,0-20.94-.87-31.42-1.27-25.29-1-51,5.07-75.17,12-28.54,8.23-56.16,19.44-84.42,28.59-27.45,8.9-55.24,16.86-83.52,22.72a466.07,466.07,0,0,1-86.42,10.05c-30.44.52-60.9-2.82-91.2-5.34-61.49-5.13-123.17-10.54-184.93-8.42C393-366.26,334.1-353.7,275.09-341.63c-29.66,6.06-58.67,14.64-88.24,20.92A425.48,425.48,0,0,1,97-311.9c-119.44-.39-234.87-39-353.09-51.42-58.58-6.17-118.25-6.38-176,6.13-28.13,6.09-56.37,12.4-84.19,19.77-14.42,3.81-29.13,7.74-42.92,13.47-6.23,2.59-12.31,5.52-18.34,8.57V-461.53Z" transform="translate(577.58 461.53)"/></svg>