<svg xmlns="http://www.w3.org/2000/svg" viewBox="0 0 1700 149.63"><g id="Layer_2" data-name="Layer 2"><g id="Layer_1-2" data-name="Layer 1"><path className="yellow-line" d="M0,149.63V123.48q2.88-1.89,5.79-3.73a8.35,8.35,0,0,0,.78-.49c.95-.6,1.91-1.19,2.87-1.78C16,114.29,25.3,114.81,32,114.81c10.49,0,20.94.87,31.42,1.27,25.29,1,51-5.07,75.17-12C167.08,95.81,194.7,84.6,223,75.45c27.45-8.9,55.24-16.86,83.52-22.72a466.07,466.07,0,0,1,86.42-10c30.44-.52,60.9,2.82,91.2,5.34C545.59,53.15,607.27,58.56,669,56.44c60.38-2.08,119.29-14.64,178.3-26.71C877,23.67,906,15.09,935.57,8.81A425.48,425.48,0,0,1,1025.41,0c119.44.39,234.87,39,353.09,51.42,58.58,6.17,118.25,6.38,176-6.13,28.13-6.09,56.37-12.4,84.19-19.77,14.42-3.81,29.13-7.74,42.92-13.47,6.23-2.59,12.31-5.52,18.34-8.57V149.63Z"/></g></g></svg>